<?xml version="1.0" encoding="utf-8"?>
<svg width="27.697021px" height="27.398193px" viewBox="0 0 27.697021 27.398193" version="1.1" xmlns:xlink="http://www.w3.org/1999/xlink" xmlns="http://www.w3.org/2000/svg">
  <g id="Page-1">
    <path d="M13.8478 1.2046C6.88313 1.2046 1.21739 6.80941 1.21739 13.6992C1.21739 20.589 6.88313 26.1938 13.8478 26.1938C20.8125 26.1938 26.4795 20.589 26.4795 13.6992C26.4795 6.80941 20.8125 1.2046 13.8478 1.2046M13.8478 27.3981C6.21235 27.3981 0 21.2526 0 13.6992C0 6.14584 6.21235 0.00029403 13.8478 0.00029403C21.4845 0.00029403 27.6969 6.14584 27.6969 13.6992C27.6969 21.2526 21.4845 27.3981 13.8478 27.3981" id="Fill-1" fill="#007397" fill-rule="evenodd" stroke="none" />
    <path d="M13.8478 1.2046C9.9607 1.2046 6.79791 6.80941 6.79791 13.6992C6.79791 20.589 9.9607 26.1938 13.8478 26.1938C17.7337 26.1938 20.8953 20.589 20.8953 13.6992C20.8953 6.80941 17.7337 1.2046 13.8478 1.2046M13.8478 27.3981C9.2887 27.3981 5.58052 21.2526 5.58052 13.6992C5.58052 6.14584 9.2887 0.00029403 13.8478 0.00029403C18.4057 0.00029403 22.1127 6.14584 22.1127 13.6992C22.1127 21.2526 18.4057 27.3981 13.8478 27.3981" id="Fill-3" fill="#007397" fill-rule="evenodd" stroke="none" />
    <path d="M14.4565 1.21869L14.4565 26.1802C21.14 25.8647 26.4795 20.3875 26.4795 13.6989C26.4795 7.01137 21.14 1.53421 14.4565 1.21869M13.8478 27.3978C13.5118 27.3978 13.2391 27.1292 13.2391 26.7956L13.2391 0.602083C13.2391 0.269696 13.5118 -6.72638e-05 13.8478 -6.72638e-05C21.4845 -6.72638e-05 27.6969 6.14548 27.6969 13.6989C27.6969 21.2522 21.4845 27.3978 13.8478 27.3978" id="Fill-5" fill="#007397" fill-rule="evenodd" stroke="none" />
    <path d="M1.89682 17.7132L25.7966 17.7132C26.2495 16.4029 26.4796 15.0541 26.4796 13.6992C26.4796 12.3444 26.2495 10.9956 25.7954 9.68408L1.89925 9.68408C1.44638 10.992 1.21751 12.3408 1.21751 13.6992C1.21751 15.0553 1.44517 16.4041 1.89682 17.7132M26.2239 18.9175L1.4683 18.9175C1.21508 18.9175 0.987426 18.7621 0.898556 18.5273C0.302035 16.9605 0.000121739 15.3359 0.000121739 13.6992C0.000121739 12.059 0.303252 10.4344 0.902209 8.86877C0.992296 8.63393 1.21873 8.47978 1.47195 8.47978L26.2239 8.47978C26.4772 8.47978 26.7036 8.63513 26.7937 8.86877C27.3926 10.4392 27.697 12.065 27.697 13.6992C27.697 15.3347 27.3926 16.9593 26.7937 18.5285C26.7036 18.7621 26.4772 18.9175 26.2239 18.9175" id="Fill-8" fill="#007397" fill-rule="evenodd" stroke="none" />
  </g>
</svg>